<?xml version="1.0" encoding="UTF-8"?>
<svg xmlns="http://www.w3.org/2000/svg" viewBox="0 0 841.89 595.28" role="img" aria-label="One Collective">
  <g fill="#ffffff">
    <path d="M295.4,346.61c-7.05-15.18-23.51-21.87-40.04-19.31-13.78,2.13-24.56,11.65-28.49,25-1.74,5.92-1.78,11.68-1.31,18.25-10.31,14.84-23.32,24.28-41.58,23-11.48-.8-21.33-6.74-27.62-16.33-9.51-14.49-10.81-34.22-6.75-50.93,4.58-18.82,18.5-32.27,38.18-29.16,15.67,2.47,23.36,14.6,27.39,29.19,1.11.71,3.15.69,4.32-.07l-.1-31.23c-5.38-2.66-4.28,4.96-9.41,2.67-29.54-13.21-66.41-5.04-78.72,26.77-8.73,22.57-3.48,51.45,16.33,65.79,10,7.24,21.93,10.39,34.27,10.24,10.12.15,19.68-2.08,28.18-7.38,6.73-4.48,11.74-10.18,17-17.02,3.33,10.39,10.3,18.04,20.3,21.8,17.54,6.59,38.82,1.19,47.52-16.19,5.6-11.2,5.8-23.73.53-35.09ZM280.74,378.08c-2.93,12.12-10.37,20.07-22.38,17.68-13.36-2.66-16.52-20.9-16.27-33.99.26-13.72,4.66-29.64,18.99-30.53,19.94-1.24,24.25,27.8,19.66,46.84Z"/>
    <path d="M379.61,205.84c-11.47-22.19-35.94-31.33-59.79-25.62-35.13,8.42-47.77,48.41-33.79,78.92,9.94,21.72,31.81,31.69,55.31,28.84,27.38-3.33,44.22-26.36,44.73-53.65.18-10.15-1.83-19.52-6.46-28.49ZM331.33,283.9c-17.46-1.23-26.05-15.77-29.31-31.68-2.89-14.13-2.85-28.27,1.06-42.15,4.26-15.08,13.17-26.27,29.43-26.77,10.7-.33,20.11,4.71,25.47,14.08,3.35,5.86,5.73,12.04,6.96,18.86,4.81,26.85-.97,69.96-33.61,67.66Z"/>
    <path d="M473.92,286.91h-34.09c-.56-.41-1.04-1.9-.82-2.59.62-1.94,4.99-.33,7.89-2.63,1.11-.89,2.15-3.24,2.15-5.09l-.18-41.1c-.02-6.74-5.28-11.29-11.42-11.85-8.23-.76-15.37,2.66-19.48,10.29l.03,42.37c.01,4.31,2.91,6.87,7.01,6.8.92-.01,2.22.33,2.8.72.59.39.05,3.05-.63,3.05l-33.65.05c-.63-.14-1.27-2.2-.93-2.72,1.23-1.88,5.3-.18,8.22-2.55,1.07-.86,2.16-3.28,2.16-5.1l-.04-45.8c-.01-7.75-9.26-6.54-10-7.38-.48-.53-.07-2.45.32-3.04l20.83-4c1.98-.38,3.6.58,3.67,2.66l.28,8.31c8.13-10.68,20.53-15.2,32.88-11.34,10.46,3.26,13.23,12.4,13.23,22.88v37.24c0,1.87.81,4.2,1.97,5.29,3.53,3.33,10.91-.07,7.8,5.53Z"/>
    <path d="M720.59,380.63c-5.48,8.74-14.09,13.33-24.18,12.38-15.7-1.49-23.15-17.74-21.82-32.82l48.23-.02c.98-15.92-7.06-29.74-22.74-32.72-10.71-2.03-21.79.05-30.07,7.32-11.5,10.1-14.38,26.94-10.32,41.46,2.89,10.39,10.04,18.19,20.14,21.8,16.79,6.01,36.83,1.54,44.15-15.67.06-1.16-2.7-2.84-3.39-1.73ZM688.93,331.55c6.35-1.3,12.3,1.65,14.92,7.51,2.23,4.99,2.89,10.13,2.13,16.26l-31.39.1c.13-10.05,4.4-21.85,14.34-23.87Z"/>
    <path d="M434.89,380.32c-4.06,7.04-10.59,11.89-18.92,12.69-9.84.95-18.48-3.34-22.97-11.8-3.39-6.38-4.84-13.49-4.24-21.01l48.43-.05c.63-13.79-5.23-26.79-18.21-31.35-9.25-3.26-19.46-2.7-28.31,1.66-17.56,8.66-22.88,32.03-15.1,50.16,7.13,16.64,25.23,22.56,42.35,18.82,9.4-2.05,16.88-8.62,20.44-17.37-.88-1.03-2.29-1.82-3.47-1.75ZM402.42,331.69c7.22-1.84,13.65,1.67,16.33,8.62,1.63,4.24,3.39,14.16.25,15.09l-30.33-.02c.53-10.22,3.91-20.72,13.75-23.69Z"/>
    <path d="M540.09,270.35c-3.65,3.05-7.11,6.07-11.27,8.36-11.11,6.14-20.27,7.2-28.73-2.48-6.72-7.7-9.49-17.83-8.81-28.12l48.55-.04c.78-14.73-6.49-28.55-20.63-32.18-17.52-4.51-34.95,2.89-41.69,20.02-7.03,17.88-1.37,41.19,16.62,48.97,17.19,7.44,37.24,2.56,49.59-11.46-.47-1.64-2.19-2.84-3.63-3.07ZM504.67,219.68c6.56-1.95,12.95.89,15.9,7.08,2.37,4.97,3.07,10.11,2.3,16.48l-31.64.09c.5-9.86,4.05-20.87,13.44-23.65Z"/>
    <path d="M511.47,382.93c-8.16,18.59-32.88,21.92-49.72,12.63-13.99-7.71-18.58-24.63-15.59-39.69,3.47-17.52,18.38-29.23,36.17-29.11,7.59.05,14.83,1.52,20.86,6.13,4.86,3.72,7.34,9.86,4.96,15.59-1.19,2.86-4.14,4.46-6.68,4.77-3.01.35-6.25-.65-8.14-3.02-2.07-2.61-2.43-6.3-1.2-9.37,1.2-2.98.35-5.89-2.65-7.58-5.52-3.11-12.56-2.37-17.7,1.6-11.29,8.72-12.21,28.97-7.75,41.95,2.14,6.22,6.22,11.57,12.05,14.37,11.83,5.67,25.17.89,32.04-10.07.91-.57,3.11.7,3.35,1.8Z"/>
    <path d="M371.19,398.84l-34.41.05c-3.48-5.51,4.64-2.21,7.95-6.07.84-.97,1.39-3.35,1.4-4.9l.03-78.76c0-1.75-.88-4.45-2.07-5.25-2.24-1.52-4.52-1.65-7.21-2.09-1.07-.17-1.12-3.16.04-3.39l21.21-4.26c1.52-.3,3.22.79,3.22,2.6l.03,91.56c0,1.79.89,4,1.85,4.96,3.3,3.32,10.59-.3,7.96,5.55Z"/>
    <path d="M334.74,398.85h-34.59c-2.13-5.86,3.93-2.16,7.87-5.35,1.19-.97,2.25-3.43,2.25-5.51l-.03-78.8c-.01-8.28-9.6-6.34-10.22-8.17-.25-.74.2-2.31.8-2.66l21.36-4.18c1.55-.32,3,.8,3,2.62l.05,91.76c0,4.15,3.15,6.56,6.89,6.49.82-.02,2.28.26,2.75.71.55.53.31,2.28-.13,3.09Z"/>
    <path d="M559.52,387.06c-3.29,8.65-11.47,13.65-20.64,13.38-5.06-.14-10-1.23-13.38-5.26-2.36-2.81-3.65-6.77-3.65-10.71l-.08-50.8h-9.9c-1.01-.93-1.02-3.16-.41-4.67,5.54-1.06,9.87-3.95,13.58-8.09,7.64-8.5,4.63-16.51,11.53-13.74l.09,21.27h19.14c.59,1.78.62,3.52-.06,5.22l-19.12.03.09,49.67c0,4.29,3.17,7.78,6.85,8.44,11.61,2.08,11.59-10.19,15.96-4.74Z"/>
    <path d="M663.24,332.19c-3.78.51-7.15,2.04-8.64,5.76l-8.02,19.97-16.04,41.59h-5.71s-25.98-62.16-25.98-62.16c-2.35-5.63-8.32-4.21-8.97-5.7-.29-.66.09-2.24.59-3.03l33.01-.06c.71.39,1.28,1.97,1.03,2.77-.62,1.94-5.23.35-7.73,2.84-1.09,1.09-1.38,3.69-.68,5.44l16.44,41.29,15.32-41.29c.51-1.37-.09-4.17-.89-5.16-1.97-2.44-6.58-1.25-7.38-2.74-.35-.65.02-2.43.54-3.12l23.02.03c.95.01,1.03,3.45.09,3.57Z"/>
    <path d="M595.37,398.84l-34.7.02c-.71-.23-1.11-2.25-.69-2.87.39-.57,1.77-1,2.65-.96,4.33.21,7.67-2.25,7.67-6.77l.02-45.17c.01-8.55-8.61-6.48-10.11-8.24-.42-.5-.04-2.18.48-2.71l21.6-4.01c1.7-.31,2.93,1.89,2.93,3.5l.02,56.13c0,1.94.87,4.69,2.22,5.74,4,3.11,9.59-.48,7.91,5.34Z"/>
    <path d="M587.99,303.35c0,5.6-4.55,10.14-10.15,10.14s-10.15-4.54-10.15-10.14,4.54-10.15,10.15-10.15,10.15,4.54,10.15,10.15Z"/>
  </g>
</svg>
